{"buffers":[{"uri":"Chess_Knight v1.bin","byteLength":193440}],"asset":{"version":"2.0","generator":"gltfpack 0.16"},"bufferViews":[{"buffer":0,"byteOffset":0,"byteLength":67680,"byteStride":12,"target":34962},{"buffer":0,"byteOffset":67680,"byteLength":67680,"byteStride":12,"target":34962},{"buffer":0,"byteOffset":135360,"byteLength":58080,"target":34963}],"accessors":[{"bufferView":0,"byteOffset":0,"componentType":5126,"count":5640,"type":"VEC3","min":[-1.67900002,-1.23573995,0],"max":[1.23863006,1.23573995,4.77794981]},{"bufferView":1,"byteOffset":0,"componentType":5126,"count":5640,"type":"VEC3"},{"bufferView":2,"byteOffset":0,"componentType":5123,"count":29040,"type":"SCALAR"}],"materials":[{"pbrMetallicRoughness":{"baseColorFactor":[0.627451003,0.627451003,0.627451003,1],"metallicFactor":0},"doubleSided":true}],"meshes":[{"primitives":[{"attributes":{"POSITION":0,"NORMAL":1},"mode":4,"indices":2,"material":0}]}],"nodes":[{"mesh":0},{"name":"Chess","children":[0]}],"scenes":[{"nodes":[1]}]}